<svg width="512" height="512" viewBox="0 0 512 512" fill="none" xmlns="http://www.w3.org/2000/svg">
  <!-- Sleek Dark Rounded Background -->
  <rect width="512" height="512" rx="128" fill="#0A0A0A"/>
  <rect x="8" y="8" width="496" height="496" rx="120" stroke="#20B2AA" stroke-width="8" stroke-opacity="0.3"/>
  
  <!-- Outer AI Nova Star (Scaled up for 512x512) -->
  <path d="M256 64C256 182.26 182.26 256 64 256C182.26 256 256 329.74 256 448C256 329.74 329.74 256 448 256C329.74 256 256 182.26 256 64Z" fill="white"/>
  
  <!-- Inner Theme Core -->
  <path d="M256 192C256 238.99 218.99 256 176 256C218.99 256 256 273.01 256 320C256 273.01 293.01 256 336 256C293.01 256 256 238.99 256 192Z" fill="#20B2AA"/>
</svg>